<?xml version="1.0" encoding="utf-8"?>
<!-- Generator: Adobe Illustrator 26.3.1, SVG Export Plug-In . SVG Version: 6.00 Build 0)  -->
<svg version="1.1" id="Layer_1" xmlns="http://www.w3.org/2000/svg" xmlns:xlink="http://www.w3.org/1999/xlink" x="0px" y="0px"
	 viewBox="0 0 512 512" style="enable-background:new 0 0 512 512;" xml:space="preserve">
<style type="text/css">
	.st0{fill:#FFFFFF;}
</style>
<path class="st0" d="M459,507H52.9C26.4,507,5,485.6,5,459.1V53C5,26.6,26.4,5.1,52.9,5.1H459c26.5,0,47.9,21.4,47.9,47.9v406.1
	C506.9,485.6,485.4,507,459,507z"/>
<g>
	<path d="M255.9,481.4c-60.1,0-116.8-23.4-159.3-66s-66.1-99.2-66.1-159.3S54,139.3,96.5,96.8s99.2-66,159.3-66s116.8,23.4,159.3,66
		s66,99.2,66,159.3s-23.4,116.8-66,159.3S316.1,481.4,255.9,481.4z"/>
	<path d="M255.9,31.3c30.3,0,59.8,6,87.5,17.7c26.7,11.3,50.8,27.5,71.5,48.1c20.6,20.6,36.9,44.6,48.1,71.5
		c11.7,27.7,17.7,57.2,17.7,87.5s-6,59.8-17.7,87.5c-11.3,26.7-27.5,50.8-48.1,71.5c-20.6,20.6-44.6,36.9-71.5,48.1
		C315.8,475,286.3,481,255.9,481c-30.4,0-59.8-6-87.5-17.7c-26.7-11.3-50.8-27.5-71.5-48.1c-20.6-20.6-36.9-44.6-48.1-71.5
		c-11.6-27.8-17.6-57.3-17.6-87.6s6-59.8,17.7-87.5C60.1,141.8,76.4,117.8,97,97c20.6-20.6,44.6-36.9,71.5-48.1
		C196.1,37.2,225.6,31.3,255.9,31.3 M255.9,30c-124.9,0-226,101.2-226,226s101.2,226,226,226s226-101.2,226-226S380.7,30,255.9,30
		L255.9,30z"/>
</g>
<g>
	<circle class="st0" cx="255.3" cy="113.9" r="55.9"/>
	<path class="st0" d="M255.3,58.5c30.5,0,55.3,24.8,55.3,55.3s-24.8,55.3-55.3,55.3S200,144.3,200,113.8S224.7,58.5,255.3,58.5
		 M255.3,57.4c-31.2,0-56.5,25.2-56.5,56.5s25.2,56.5,56.5,56.5s56.5-25.2,56.5-56.5S286.5,57.4,255.3,57.4L255.3,57.4z"/>
</g>
<g>
	<circle class="st0" cx="380.7" cy="183.4" r="55.9"/>
	<path class="st0" d="M380.7,128.1c30.5,0,55.3,24.8,55.3,55.3s-24.8,55.3-55.3,55.3c-30.5,0-55.4-24.8-55.4-55.3
		S350.2,128.1,380.7,128.1 M380.7,126.9c-31.2,0-56.5,25.2-56.5,56.5s25.2,56.5,56.5,56.5s56.5-25.2,56.5-56.5
		S411.8,126.9,380.7,126.9L380.7,126.9z"/>
</g>
<g>
	<circle class="st0" cx="380.7" cy="326.1" r="55.9"/>
	<path class="st0" d="M380.7,270.9c30.5,0,55.3,24.8,55.3,55.3c0,30.5-24.8,55.3-55.3,55.3c-30.5,0-55.4-24.8-55.4-55.3
		C325.4,295.7,350.2,270.9,380.7,270.9 M380.7,269.7c-31.2,0-56.5,25.2-56.5,56.5s25.2,56.5,56.5,56.5s56.5-25.2,56.5-56.5
		S411.8,269.7,380.7,269.7L380.7,269.7z"/>
</g>
<g>
	<circle class="st0" cx="255.3" cy="398.1" r="55.9"/>
	<path class="st0" d="M255.3,342.9c30.5,0,55.3,24.8,55.3,55.3c0,30.5-24.8,55.3-55.3,55.3S200,428.6,200,398.1
		C200,367.7,224.7,342.9,255.3,342.9 M255.3,341.6c-31.2,0-56.5,25.2-56.5,56.5s25.2,56.5,56.5,56.5s56.5-25.2,56.5-56.5
		S286.5,341.6,255.3,341.6L255.3,341.6z"/>
</g>
<g>
	<circle class="st0" cx="134.9" cy="326.1" r="55.9"/>
	<path class="st0" d="M134.9,270.9c30.5,0,55.3,24.8,55.3,55.3c0,30.5-24.8,55.3-55.3,55.3s-55.3-24.8-55.3-55.4
		S104.4,270.9,134.9,270.9 M134.9,269.7c-31.2,0-56.5,25.2-56.5,56.5s25.2,56.5,56.5,56.5s56.5-25.2,56.5-56.5
		S166.1,269.7,134.9,269.7L134.9,269.7z"/>
</g>
<g>
	<circle class="st0" cx="134.9" cy="183.4" r="55.9"/>
	<path class="st0" d="M134.9,128.1c30.5,0,55.3,24.8,55.3,55.3s-24.8,55.3-55.3,55.3s-55.3-24.8-55.3-55.3S104.4,128.1,134.9,128.1
		 M134.9,126.9c-31.2,0-56.5,25.2-56.5,56.5s25.2,56.5,56.5,56.5s56.5-25.2,56.5-56.5S166.1,126.9,134.9,126.9L134.9,126.9z"/>
</g>
</svg>
