<?xml version="1.0" encoding="utf-8"?>
<!-- Generator: Adobe Illustrator 26.4.1, SVG Export Plug-In . SVG Version: 6.00 Build 0)  -->
<svg version="1.1" id="Layer_1" xmlns="http://www.w3.org/2000/svg" xmlns:xlink="http://www.w3.org/1999/xlink" x="0px" y="0px"
	 viewBox="0 0 512 512" style="enable-background:new 0 0 512 512;" xml:space="preserve">
<style type="text/css">
	.st0{fill:#FFD700;}
</style>
<g>
	<path class="st0" d="M257.2,16.7l77.3,156.7c0.1,0.2,0.4,0.4,0.6,0.5L508.1,199c0.7,0.1,0.9,0.9,0.5,1.4l-125.1,122
		c-0.2,0.2-0.3,0.5-0.2,0.7l29.5,172.2c0.1,0.7-0.6,1.2-1.2,0.9l-154.7-81.3c-0.2-0.1-0.5-0.1-0.8,0l-154.7,81.3
		c-0.6,0.3-1.3-0.2-1.2-0.9l29.5-172.2c0-0.3,0-0.5-0.2-0.7L4.4,200.4c-0.5-0.5-0.2-1.3,0.5-1.4l172.9-25.1c0.3,0,0.5-0.2,0.6-0.5
		l77.3-156.7C256.1,16,256.9,16,257.2,16.7z"/>
</g>
</svg>
